<svg width="336" height="300" viewBox="0 0 336 300" fill="none" xmlns="http://www.w3.org/2000/svg">
<g clip-path="url(#clip0)">
<path d="M40.9781 233.69L37.2254 218.911C30.5714 216.095 23.7636 213.656 16.8344 211.606L16.3606 218.475L14.4392 210.908C5.84599 208.458 0 207.378 0 207.378C0 207.378 7.89658 237.362 24.4591 260.285L43.758 263.67L28.7652 265.828C30.8495 268.332 33.0894 270.702 35.4717 272.925C59.5655 295.256 86.4014 305.501 95.4115 295.809C104.421 286.117 92.1937 260.156 68.0999 237.826C60.6306 230.903 51.2476 225.347 41.8552 220.975L40.9781 233.69Z" fill="#E6E6E6"/>
<path d="M76.6688 217.64L81.1072 203.052C76.8686 197.207 72.3034 191.605 67.433 186.274L63.4718 191.909L65.7443 184.44C59.6564 177.907 55.2107 173.966 55.2107 173.966C55.2107 173.966 46.4489 203.709 48.7606 231.881L63.5291 244.739L49.5772 238.848C50.0654 242.067 50.7559 245.253 51.6446 248.385C60.7098 279.937 78.3788 302.558 91.1093 298.912C103.84 295.265 106.811 266.731 97.7457 235.179C94.9353 225.397 89.779 215.799 84.0021 207.208L76.6688 217.64Z" fill="#E6E6E6"/>
<path d="M287.955 277.312L290.748 274.3C290.41 272.387 289.964 270.495 289.412 268.632L287.79 269.532L289.219 267.99C288.514 265.694 287.902 264.217 287.902 264.217C287.902 264.217 282.278 270.391 279.521 277.483L281.583 282.331L278.898 279.266C278.637 280.103 278.43 280.956 278.276 281.818C276.756 290.522 278.371 298.074 281.883 298.686C285.394 299.297 289.474 292.737 290.994 284.033C291.412 281.252 291.4 278.424 290.959 275.647L287.955 277.312Z" fill="#E6E6E6"/>
<path d="M329.267 283.267L333.216 282.131C333.917 280.319 334.515 278.469 335.007 276.589L333.153 276.522L335.175 275.94C335.76 273.61 336 272.03 336 272.03C336 272.03 327.99 274.412 321.958 279.061L321.214 284.275L320.502 280.266C319.845 280.848 319.226 281.47 318.648 282.129C312.841 288.796 310.314 296.094 313.004 298.43C315.694 300.766 322.582 297.256 328.389 290.589C330.186 288.424 331.64 285.997 332.701 283.392L329.267 283.267Z" fill="#E6E6E6"/>
<path d="M218.863 20.3541V278.371C218.862 283.769 216.714 288.946 212.891 292.762C209.069 296.579 203.885 298.724 198.479 298.725H98.0612C92.654 298.726 87.4678 296.582 83.6435 292.765C79.8192 288.948 77.6699 283.77 77.6683 278.371V20.3541C77.6699 14.9549 79.8192 9.77735 83.6435 5.96031C87.4678 2.14327 92.654 -0.000680761 98.0612 1.62147e-07H110.243C109.644 1.46875 109.417 3.06171 109.58 4.63888C109.742 6.21605 110.291 7.72913 111.176 9.04514C112.062 10.3611 113.258 11.4398 114.659 12.1862C116.06 12.9327 117.623 13.3241 119.211 13.3261H176.462C178.05 13.3241 179.613 12.9327 181.014 12.1863C182.415 11.4398 183.611 10.3612 184.496 9.04517C185.382 7.72916 185.93 6.21607 186.093 4.63889C186.256 3.06172 186.028 1.46875 185.43 6.59348e-06H198.479C203.885 0.00109833 209.069 2.14589 212.891 5.96279C216.714 9.77969 218.862 14.9562 218.863 20.3541V20.3541Z" fill="#3F3D56"/>
<path d="M134.116 106.863C134.116 105.096 134.582 103.359 135.467 101.828C136.352 100.298 137.626 99.0268 139.159 98.1436C137.626 97.2592 135.887 96.7934 134.116 96.793C132.346 96.7927 130.606 97.2577 129.073 98.1415C127.539 99.0252 126.266 100.296 125.38 101.828C124.495 103.359 124.029 105.095 124.029 106.863C124.029 108.631 124.495 110.368 125.38 111.899C126.266 113.43 127.539 114.701 129.073 115.585C130.606 116.469 132.346 116.934 134.116 116.933C135.887 116.933 137.626 116.467 139.159 115.583C137.626 114.7 136.352 113.429 135.467 111.898C134.582 110.367 134.116 108.631 134.116 106.863V106.863Z" fill="white"/>
<path d="M146.795 106.863C146.795 105.096 147.26 103.359 148.146 101.828C149.031 100.298 150.304 99.0268 151.837 98.1436C150.304 97.2592 148.565 96.7934 146.795 96.793C145.024 96.7927 143.285 97.2577 141.751 98.1415C140.218 99.0252 138.944 100.296 138.059 101.828C137.173 103.359 136.707 105.095 136.707 106.863C136.707 108.631 137.173 110.368 138.059 111.899C138.944 113.43 140.218 114.701 141.751 115.585C143.285 116.469 145.024 116.934 146.795 116.933C148.565 116.933 150.304 116.467 151.837 115.583C150.304 114.7 149.031 113.429 148.146 111.898C147.26 110.367 146.795 108.631 146.795 106.863V106.863Z" fill="white"/>
<path d="M159.185 116.933C164.755 116.933 169.27 112.425 169.27 106.863C169.27 101.302 164.755 96.7931 159.185 96.7931C153.615 96.7931 149.1 101.302 149.1 106.863C149.1 112.425 153.615 116.933 159.185 116.933Z" fill="#0D1842"/>
<path d="M193.385 172.768H103.237V173.611H193.385V172.768Z" fill="white"/>
<path d="M106.084 167.504C107.657 167.504 108.931 166.232 108.931 164.662C108.931 163.092 107.657 161.819 106.084 161.819C104.512 161.819 103.238 163.092 103.238 164.662C103.238 166.232 104.512 167.504 106.084 167.504Z" fill="#0D1842"/>
<path d="M193.385 201.193H103.237V202.036H193.385V201.193Z" fill="white"/>
<path d="M106.084 195.93C107.657 195.93 108.931 194.657 108.931 193.087C108.931 191.517 107.657 190.245 106.084 190.245C104.512 190.245 103.238 191.517 103.238 193.087C103.238 194.657 104.512 195.93 106.084 195.93Z" fill="#0D1842"/>
<path d="M176.039 138.316H117.262C116.702 138.315 116.166 138.093 115.77 137.698C115.374 137.303 115.152 136.767 115.151 136.209V77.5181C115.152 76.9594 115.374 76.4238 115.77 76.0287C116.166 75.6336 116.702 75.4114 117.262 75.4107H176.039C176.599 75.4114 177.135 75.6336 177.531 76.0287C177.927 76.4238 178.149 76.9594 178.15 77.5181V136.209C178.149 136.767 177.927 137.303 177.531 137.698C177.135 138.093 176.599 138.315 176.039 138.316V138.316ZM117.262 76.2537C116.926 76.254 116.604 76.3874 116.367 76.6244C116.129 76.8615 115.996 77.1829 115.995 77.5181V136.209C115.996 136.544 116.129 136.865 116.367 137.102C116.604 137.339 116.926 137.473 117.262 137.473H176.039C176.375 137.473 176.697 137.339 176.934 137.102C177.172 136.865 177.305 136.544 177.306 136.209V77.5181C177.305 77.1829 177.172 76.8615 176.934 76.6244C176.697 76.3874 176.375 76.254 176.039 76.2537H117.262Z" fill="white"/>
<path d="M191.697 220.091H163.285C162.352 220.091 161.596 220.846 161.596 221.777V231.671C161.596 232.602 162.352 233.357 163.285 233.357H191.697C192.629 233.357 193.385 232.602 193.385 231.671V221.777C193.385 220.846 192.629 220.091 191.697 220.091Z" fill="#0D1842"/>
<path d="M336 298.312H0.33551V299.155H336V298.312Z" fill="#3F3D56"/>
<path d="M272.059 137.017C272.059 137.017 270.891 144.406 272.059 145.573C273.228 146.74 264.658 156.464 264.658 156.464L257.647 146.74C257.647 146.74 260.763 141.684 259.594 137.406L272.059 137.017Z" fill="#FFB8B8"/>
<path d="M246.353 192.635L241.287 246.697L243.233 288.702L252.581 285.98L252.973 248.253L263.88 215.583L270.501 250.976L269.72 286.759L281.406 287.148L282.186 247.476L283.555 192.068L246.353 192.635Z" fill="#2F2E41"/>
<path d="M270.111 285.592V294.148C270.111 294.148 268.164 300.371 274.396 299.982C280.628 299.594 280.239 296.871 280.239 296.871L277.902 286.37L270.111 285.592Z" fill="#2F2E41"/>
<path d="M252.194 285.592V294.148C252.194 294.148 254.141 300.371 247.909 299.982C241.677 299.594 242.066 296.871 242.066 296.871L244.403 286.37L252.194 285.592Z" fill="#2F2E41"/>
<path d="M265.437 141.295C270.385 141.295 274.396 137.29 274.396 132.349C274.396 127.409 270.385 123.404 265.437 123.404C260.489 123.404 256.478 127.409 256.478 132.349C256.478 137.29 260.489 141.295 265.437 141.295Z" fill="#FFB8B8"/>
<path d="M265.048 152.185L265.827 148.296H267.774L271.541 142.886L274.786 145.962L275.565 164.242H254.531L256.478 144.795L259.315 142.886C259.315 142.886 258.815 149.463 264.269 149.463L265.048 152.185Z" fill="#575A89"/>
<path d="M256.868 147.907C256.868 147.907 260.093 151.985 264.908 151.696C269.722 151.407 274.396 147.518 274.396 147.518L281.018 198.08C281.018 198.08 273.617 198.858 271.28 194.969L253.362 194.58L253.752 147.518L256.868 147.907Z" fill="#D0CDE1"/>
<path d="M259.498 142.216L242.456 150.629L246.74 174.744C246.74 174.744 248.298 183.689 246.74 187.19C245.182 190.69 243.624 214.027 243.624 214.027C243.624 214.027 261.153 215.971 258.815 188.357C256.478 160.742 259.498 142.216 259.498 142.216Z" fill="#2F2E41"/>
<path d="M249.077 200.414L251.415 202.747C251.415 202.747 258.426 214.805 261.542 210.526C264.658 206.248 256.089 198.858 256.089 198.858L252.194 195.747L249.077 200.414Z" fill="#FFB8B8"/>
<path d="M271.55 142.216L288.419 150.629L282.576 179.411C282.576 179.411 282.966 188.746 284.913 193.802C286.861 198.858 286.082 213.638 286.082 213.638C286.082 213.638 283.745 222.583 278.681 200.414C273.617 178.244 271.55 142.216 271.55 142.216Z" fill="#2F2E41"/>
<path d="M284.524 186.412H281.018C281.018 186.412 269.332 184.856 270.112 189.524C270.891 194.191 281.797 193.024 281.797 193.024L286.082 192.635L284.524 186.412Z" fill="#FFB8B8"/>
<path d="M244.793 149.463L242.066 150.63C242.066 150.63 239.34 156.464 238.95 158.408C238.56 160.353 233.886 183.689 235.055 186.412C236.223 189.135 247.909 203.525 247.909 203.525L254.531 196.524L244.793 183.3L247.519 166.576L244.793 149.463Z" fill="#2F2E41"/>
<path d="M282.576 149.852L287.73 150.286L288.808 150.63C288.808 150.63 299.715 180.189 297.378 184.856C295.041 189.524 284.913 198.08 284.913 198.08L282.187 186.023L287.25 181.356L282.187 165.798L282.576 149.852Z" fill="#2F2E41"/>
<path d="M273.017 125.452C273.017 125.452 275.361 121.06 270.204 120.661C270.204 120.661 265.517 117.866 261.767 121.06C261.767 121.06 258.486 120.262 257.548 122.657C257.548 122.657 257.079 121.459 258.486 120.661C258.486 120.661 255.204 119.862 255.204 123.855C255.204 123.855 253.798 127.847 255.204 131.44C256.61 135.033 257.079 135.432 257.079 135.432C257.079 135.432 254.768 127.899 260.393 127.5C266.019 127.101 272.314 123.655 272.783 128.047C273.251 132.438 274.189 133.636 274.189 133.636C274.189 133.636 278.408 127.248 273.017 125.452Z" fill="#2F2E41"/>
</g>
<defs>
<clipPath id="clip0">
<rect width="336" height="300" fill="white"/>
</clipPath>
</defs>
</svg>
